<?xml version="1.0" standalone="no"?>
<!DOCTYPE svg PUBLIC "-//W3C//DTD SVG 20010904//EN"
 "http://www.w3.org/TR/2001/REC-SVG-20010904/DTD/svg10.dtd">
<svg version="1.0" xmlns="http://www.w3.org/2000/svg"
 width="480.000000pt" height="480.000000pt" viewBox="0 0 480.000000 480.000000"
 preserveAspectRatio="xMidYMid meet">

<g transform="translate(0.000000,480.000000) scale(0.100000,-0.100000)"
fill="#000000" stroke="none">
<path d="M0 2400 l0 -2400 2400 0 2400 0 0 2400 0 2400 -2400 0 -2400 0 0
-2400z m2708 1477 c185 -106 368 -210 405 -231 38 -21 66 -40 64 -43 -3 -3
-184 -107 -403 -232 -219 -125 -399 -232 -401 -237 -1 -5 61 -45 139 -89 191
-108 233 -132 466 -265 l202 -115 0 -461 0 -462 -167 -95 c-93 -52 -240 -136
-328 -187 -342 -196 -316 -183 -342 -171 -24 11 -23 31 1 31 9 0 12 9 8 25 -3
20 -7 23 -18 14 -7 -6 -11 -16 -8 -24 13 -32 -24 -23 -116 30 -55 32 -100 61
-100 66 0 5 -8 9 -17 9 -10 0 -34 10 -53 21 -19 12 -64 37 -100 57 -70 37 -91
52 -73 52 7 0 15 -4 18 -10 3 -5 11 -10 18 -10 6 0 2 7 -9 15 -17 13 -17 14
-1 15 9 0 17 5 17 10 0 6 -13 4 -30 -5 -28 -14 -32 -14 -77 13 -26 16 -92 53
-145 83 -54 30 -98 58 -98 63 0 4 7 5 16 2 8 -3 13 -2 10 2 -2 4 35 30 82 57
48 27 124 70 170 97 45 26 88 48 94 48 6 0 16 7 22 14 6 8 18 16 26 18 8 2 21
9 28 16 8 7 24 10 36 7 15 -5 17 -4 7 3 -11 8 -5 14 25 29 22 11 69 36 104 57
36 21 72 42 80 47 66 39 73 41 82 27 8 -10 9 -9 5 3 -3 9 -1 21 5 27 11 11 34
-3 -469 283 l-343 194 0 463 0 462 23 10 c12 5 198 110 412 234 215 123 391
225 393 225 2 1 155 -86 340 -192z m-1594 -2877 c27 -10 31 -17 18 -37 -6 -9
-17 -10 -38 -4 -33 9 -78 -3 -72 -21 2 -6 28 -20 58 -30 60 -20 70 -30 70 -70
0 -49 -73 -75 -153 -55 -22 6 -28 13 -25 30 2 14 9 20 18 18 73 -21 135 -5 96
25 -11 8 -30 14 -42 14 -34 0 -74 37 -74 69 0 56 75 88 144 61z m313 -25 c23
-26 29 -58 17 -90 -9 -23 -57 -45 -99 -45 -32 0 -35 -2 -35 -30 0 -27 -3 -30
-30 -30 l-30 0 0 108 c0 60 3 112 7 115 3 4 38 5 77 3 61 -4 74 -8 93 -31z
m301 8 c3 -22 0 -23 -57 -23 -58 0 -61 -1 -61 -25 0 -23 3 -25 50 -25 43 0 50
-3 50 -20 0 -17 -7 -20 -50 -20 -47 0 -50 -2 -50 -25 0 -24 3 -25 60 -25 53 0
60 -2 60 -20 0 -18 -7 -20 -85 -20 l-85 0 0 115 0 116 83 -3 c76 -3 82 -5 85
-25z m281 6 c31 -19 32 -21 15 -34 -13 -9 -24 -10 -36 -4 -26 14 -70 11 -90
-8 -27 -24 -24 -87 4 -107 27 -19 61 -20 88 -4 15 10 22 10 31 1 36 -36 -57
-75 -120 -51 -40 15 -81 68 -81 104 0 95 107 153 189 103z m181 -64 c6 -90 12
-105 43 -105 44 0 52 15 57 102 5 77 7 83 28 86 21 3 22 1 22 -85 0 -104 -12
-127 -70 -143 -46 -12 -101 5 -119 38 -6 12 -11 60 -11 107 0 84 1 86 23 83
20 -3 22 -9 27 -83z m318 -12 l3 -93 53 0 c45 0 54 -3 59 -20 5 -19 0 -20 -79
-20 l-84 0 0 116 c0 114 0 115 23 112 21 -3 22 -8 25 -95z m383 -18 c27 -60
49 -110 49 -112 0 -2 -12 -3 -28 -3 -19 0 -30 7 -37 23 -8 19 -18 22 -60 22
-42 0 -52 -3 -60 -22 -7 -16 -18 -23 -37 -23 -16 0 -28 2 -28 4 0 2 15 36 34
77 19 41 41 91 49 111 13 31 20 36 42 34 23 -2 32 -16 76 -111z m307 88 c3
-20 -1 -23 -32 -23 l-36 0 0 -90 0 -90 -27 0 -28 0 3 90 3 90 -40 0 c-33 0
-41 4 -41 18 0 30 10 33 105 30 85 -3 90 -4 93 -25z m296 -12 c26 -27 31 -39
31 -80 0 -38 -5 -55 -24 -75 -70 -75 -202 -40 -217 56 -19 114 126 182 210 99z
m303 14 c12 -8 26 -27 29 -40 7 -27 -12 -85 -27 -85 -15 0 -10 -20 12 -51 l20
-29 -28 0 c-21 0 -36 9 -51 30 -24 32 -61 40 -63 15 -1 -8 -2 -21 -3 -27 0 -7
-13 -14 -28 -16 l-28 -3 0 110 c0 78 4 111 13 115 21 10 130 -4 154 -19z"/>
<path d="M2309 2153 c-1 -5 -1 -11 0 -15 0 -4 -5 -5 -13 -2 -7 3 -20 -1 -27
-8 -8 -7 -18 -13 -24 -13 -17 -1 -65 -28 -65 -37 0 -13 13 -9 39 11 22 17 27
17 46 5 23 -15 55 -10 55 8 0 6 -6 6 -14 -2 -11 -9 -19 -9 -33 0 -16 10 -16
10 3 5 23 -6 41 10 41 38 0 17 -6 24 -8 10z"/>
<path d="M2216 2077 c-22 -16 -6 -33 22 -23 10 4 7 -1 -7 -12 -16 -13 -20 -22
-12 -26 6 -4 11 -4 12 1 0 4 6 -4 13 -19 l12 -27 13 45 c12 39 12 47 0 54 -7
5 -16 7 -20 4 -4 -2 -9 1 -11 6 -2 7 -10 6 -22 -3z"/>
<path d="M2132 2051 c-12 -10 -18 -22 -14 -26 4 -4 -3 -4 -15 -1 -23 7 -41 -8
-22 -19 15 -10 80 27 75 42 -3 8 1 10 11 6 11 -4 14 -2 9 5 -10 16 -19 15 -44
-7z"/>
<path d="M1956 1953 c-3 -7 1 -13 10 -13 8 0 12 -4 9 -10 -3 -6 1 -7 9 -4 9 3
13 10 10 15 -3 5 0 9 7 9 19 0 1 14 -21 15 -10 1 -21 -4 -24 -12z"/>
<path d="M2060 1949 c0 -5 5 -7 10 -4 6 3 10 8 10 11 0 2 -4 4 -10 4 -5 0 -10
-5 -10 -11z"/>
<path d="M2123 1948 c2 -14 17 -28 30 -28 14 0 7 28 -9 34 -22 8 -24 8 -21 -6z"/>
<path d="M1890 1920 c-41 -22 -33 -27 9 -5 16 8 31 11 35 8 3 -4 6 -1 6 5 0
16 -9 15 -50 -8z"/>
<path d="M1885 1895 c-25 -12 -26 -14 -9 -15 12 0 27 7 34 15 15 18 14 18 -25
0z"/>
<path d="M1810 1869 c-24 -20 -24 -20 -2 -14 12 4 22 3 22 -2 0 -4 11 -8 25
-8 14 0 25 3 25 8 0 4 -12 7 -27 7 -20 0 -24 3 -14 9 7 5 9 11 4 14 -5 3 -20
-3 -33 -14z"/>
<path d="M1724 1816 c-35 -12 -91 -51 -61 -42 23 7 57 -10 57 -29 0 -8 9 -15
20 -15 11 0 20 7 20 15 0 10 10 15 34 15 21 0 36 6 40 15 3 8 17 15 31 15 15
0 25 6 25 14 0 24 -16 27 -38 6 -30 -28 -72 -34 -72 -10 0 24 -18 29 -56 16z
m6 -26 c-10 -6 -9 -9 0 -15 7 -4 16 -1 21 6 6 9 9 10 9 2 0 -20 -17 -24 -44
-12 -30 14 -33 26 -8 32 23 5 37 -3 22 -13z"/>
<path d="M1611 1749 c-11 -18 -11 -23 1 -30 7 -5 19 -8 27 -6 21 3 26 27 6 27
-11 0 -15 5 -11 15 8 23 -7 18 -23 -6z m24 -19 c3 -5 2 -10 -4 -10 -5 0 -13 5
-16 10 -3 6 -2 10 4 10 5 0 13 -4 16 -10z"/>
<path d="M1662 1761 c-11 -7 -11 -9 2 -14 10 -4 16 -1 16 8 0 17 -1 17 -18 6z"/>
<path d="M1667 1716 c-7 -18 36 -52 53 -41 6 4 9 1 8 -7 -2 -8 8 -14 26 -16
19 -2 26 0 21 8 -4 6 -13 9 -19 7 -13 -5 -42 31 -38 47 2 5 -5 5 -14 2 -10 -4
-21 -2 -24 4 -5 8 -9 6 -13 -4z"/>
<path d="M1760 1695 c0 -16 42 -30 65 -21 8 3 15 12 15 21 0 11 -11 15 -40 15
-29 0 -40 -4 -40 -15z"/>
<path d="M1865 1640 c-3 -5 -1 -10 4 -10 6 0 11 5 11 10 0 6 -2 10 -4 10 -3 0
-8 -4 -11 -10z"/>
<path d="M1789 1619 c36 -22 52 -19 31 6 -7 8 -24 15 -39 15 -26 0 -26 0 8
-21z"/>
<path d="M1919 1590 c0 -8 -2 -22 -4 -32 -2 -9 5 -18 16 -21 13 -3 17 -1 12 6
-4 7 8 -2 25 -20 27 -27 36 -30 55 -22 12 5 30 12 40 15 9 4 17 13 17 20 0 18
-15 18 -34 -1 -15 -15 -66 -21 -66 -7 -1 15 -60 76 -61 62z"/>
<path d="M2045 1495 l-30 -14 30 5 c24 5 27 3 15 -6 -13 -10 -12 -11 4 -6 13
4 17 2 13 -7 -4 -11 3 -12 39 -4 26 6 44 16 44 24 0 11 -10 13 -46 7 -34 -5
-45 -4 -40 5 9 14 8 13 -29 -4z"/>
<path d="M2137 1442 c-15 -3 -12 -7 15 -21 18 -10 45 -21 61 -25 23 -5 27 -3
27 14 0 20 0 20 30 -1 16 -12 27 -26 24 -31 -3 -4 2 -8 10 -8 9 0 16 9 16 21
0 13 -4 18 -12 13 -10 -6 -10 -4 0 7 19 20 14 32 -11 26 -12 -4 -29 -2 -37 3
-11 7 -20 4 -31 -12 -13 -16 -22 -19 -45 -14 -19 5 -24 10 -15 15 16 11 -5 19
-32 13z"/>
<path d="M2223 1370 c14 -11 29 -20 33 -20 4 0 -3 9 -16 20 -13 11 -27 20 -33
20 -5 0 2 -9 16 -20z"/>
<path d="M2282 1351 c-11 -6 -10 -10 4 -15 9 -3 19 -4 22 -1 3 3 -1 5 -9 5
-11 0 -11 2 1 10 8 5 11 10 5 10 -5 0 -16 -4 -23 -9z"/>
<path d="M1310 920 c0 -38 2 -40 29 -40 26 0 61 21 61 36 0 25 -25 44 -55 44
-34 0 -35 -1 -35 -40z"/>
<path d="M2798 910 c-16 -38 -10 -45 31 -38 19 3 19 4 1 38 l-18 35 -14 -35z"/>
<path d="M3355 940 c-26 -29 -24 -79 4 -102 32 -25 67 -23 97 8 28 27 27 63
-3 97 -22 23 -75 22 -98 -3z"/>
<path d="M3689 956 c-11 -66 5 -85 57 -72 21 6 25 12 22 39 -3 29 -6 32 -40
35 -21 2 -38 1 -39 -2z"/>
</g>
</svg>
